# xmcd
#
# Track frame offsets:
#	150
#	9110
#	22022
#	27632
#	34812
#	46010
#	55912
#	69827
#	81557
#	94957
#	102717
#	113175
#	123005
#	135590
#	147035
#	164507
#	176745
#	183877
#	200312
#	210160
#	224185
#	234062
#	247070
#	261320
#
# Disc length: 3672 seconds
#
# Revision: 1
# Processed by: cddbd v1.5.1PL0 Copyright (c) Steve Scherf et al.
# Submitted via: CDex 1.50Beta5
#
DISCID=540e5618
DTITLE=SOBUT - Independent since 1995
DYEAR=2001
DGENRE=Rock
TTITLE0=JUDGEMENT CREW
TTITLE1=ARE YOU NERVOUS?
TTITLE2=KNOW
TTITLE3=No Breathing Space
TTITLE4=Devil’s Own Luck,The
TTITLE5=CALLIN’YOU
TTITLE6=ANTI SOCIAL
TTITLE7=OVERRIDE GENERATION
TTITLE8=Old Blood
TTITLE9=U-BOAT
TTITLE10=Rocktogether,Livetogether
TTITLE11=TAKE YOUR POSITION
TTITLE12=HAGING OUT BRATS
TTITLE13=FLY AGAIN
TTITLE14=CHERRY PIE
TTITLE15=Eternal Blue
TTITLE16=NO SURPRISE
TTITLE17=9 TIMES
TTITLE18=ANIMAL TRAIL
TTITLE19=J×O×B
TTITLE20=PRESSURE
TTITLE21=KICKIN’YOUR HEAD
TTITLE22=From Far East
TTITLE23=NOMINAL REVOLUTION
EXTD=
EXTT0=
EXTT1=
EXTT2=
EXTT3=
EXTT4=
EXTT5=
EXTT6=
EXTT7=
EXTT8=
EXTT9=
EXTT10=
EXTT11=
EXTT12=
EXTT13=
EXTT14=
EXTT15=
EXTT16=
EXTT17=
EXTT18=
EXTT19=
EXTT20=
EXTT21=
EXTT22=
EXTT23=
PLAYORDER=
